<?xml version="1.0" encoding="UTF-8"?>
<!DOCTYPE svg PUBLIC "-//W3C//DTD SVG 1.1//EN" "http://www.w3.org/Graphics/SVG/1.1/DTD/svg11.dtd">
<!-- Creator: CorelDRAW X8 -->
<svg xmlns="http://www.w3.org/2000/svg" xml:space="preserve" width="62.341mm" height="70.4971mm" version="1.1" style="shape-rendering:geometricPrecision; text-rendering:geometricPrecision; image-rendering:optimizeQuality; fill-rule:evenodd; clip-rule:evenodd"
viewBox="0 0 3580 4049"
 xmlns:xlink="http://www.w3.org/1999/xlink">
 <defs>
  <style type="text/css">
   <![CDATA[
    .fil1 {fill:none}
    .fil2 {fill:black}
    .fil3 {fill:#181A1B}
    .fil0 {fill:#A49C90}
   ]]>
  </style>
 </defs>
 <g id="Camada_x0020_1">
  <metadata id="CorelCorpID_0Corel-Layer"/>
  <g id="_2710545493072">
   <path class="fil0" d="M1931 39l754 435 749 433c93,53 146,147 146,256l0 861 0 861c0,110 -53,204 -146,257l-749 432 -754 436c-90,52 -191,52 -281,0l-755 -436 -749 -432c-92,-53 -146,-147 -146,-257l0 -861 0 -861c0,-109 54,-203 146,-256l749 -433 755 -435c90,-52 191,-52 281,0z"/>
   <path class="fil1" d="M2310 2321c-103,182 -298,304 -522,304 -330,0 -599,-268 -599,-599 0,-331 269,-599 599,-599 223,0 417,121 520,301"/>
   <line class="fil1" x1="2310" y1="2321" x2="2835" y2= "2628" />
   <line class="fil1" x1="2308" y1="1729" x2="2838" y2= "1422" />
   <path class="fil1" d="M2724 2091l-133 0 0 -134 133 0m134 0l134 0 0 134 -134 0"/>
   <path class="fil1" d="M3225 1958l0 -134 133 0 0 134m0 133l0 133 -133 0 0 -133"/>
   <path class="fil2" d="M1788 2688c-375,0 -679,-304 -679,-678 0,-374 304,-678 679,-678 251,0 471,137 588,340l597 -345c-235,-409 -676,-685 -1181,-685 -752,0 -1362,610 -1362,1363 0,753 610,1364 1362,1364 502,0 941,-273 1177,-679l-591 -346c-117,206 -337,344 -590,344l0 0z"/>
   <path class="fil3" d="M1788 2688c-375,0 -679,-304 -679,-678 0,-374 304,-678 679,-678 251,0 471,137 588,340l452 -262 145 -83c-235,-409 -676,-685 -1181,-685 -752,0 -1362,610 -1362,1363 0,753 610,1364 1362,1364 502,0 941,-273 1177,-679l-591 -346c-3,4 -5,8 -8,13 -118,198 -335,331 -582,331l0 0z"/>
  </g>
 </g>
</svg>
