<?xml version="1.0" encoding="UTF-8"?>
<!DOCTYPE svg PUBLIC "-//W3C//DTD SVG 1.1//EN" "http://www.w3.org/Graphics/SVG/1.1/DTD/svg11.dtd">
<!-- Creator: CorelDRAW X8 -->
<svg xmlns="http://www.w3.org/2000/svg" xml:space="preserve" width="62.3409mm" height="70.4949mm" version="1.1" style="shape-rendering:geometricPrecision; text-rendering:geometricPrecision; image-rendering:optimizeQuality; fill-rule:evenodd; clip-rule:evenodd"
viewBox="0 0 6409 7247"
 xmlns:xlink="http://www.w3.org/1999/xlink">
 <defs>
  <style type="text/css">
   <![CDATA[
    .fil1 {fill:none}
    .fil2 {fill:black}
    .fil0 {fill:#6C757D}
    .fil3 {fill:white}
   ]]>
  </style>
 </defs>
 <g id="Camada_x0020_1">
  <metadata id="CorelCorpID_0Corel-Layer"/>
  <g id="_1763661615344">
   <path class="fil0" d="M3457 70l1350 779 1340 774c166,96 262,264 262,459l0 1542 0 1541c0,196 -96,364 -262,460l-1340 773 -1350 780c-161,93 -343,93 -504,0l-1351 -780 -1340 -773c-166,-96 -262,-264 -262,-460l0 -1541 0 -1542c0,-195 96,-363 262,-459l1340 -774 1351 -779c161,-93 343,-93 504,0z"/>
   <path class="fil1" d="M4135 4155c-184,325 -533,544 -934,544 -592,0 -1073,-480 -1073,-1072 0,-592 481,-1072 1073,-1072 399,0 746,217 931,539"/>
   <path class="fil1" d="M5071 4702c-373,641 -1067,1072 -1863,1072 -1189,0 -2153,-964 -2153,-2154 0,-1190 964,-2155 2153,-2155 799,0 1497,436 1868,1082"/>
   <line class="fil1" x1="4135" y1="4155" x2="5074" y2= "4704" />
   <line class="fil1" x1="4131" y1="3095" x2="5080" y2= "2545" />
   <path class="fil1" d="M4876 3504l0 -239 239 0 0 239m0 239l0 239 -239 0 0 -239"/>
   <path class="fil1" d="M4876 3743l-238 0 0 -239 238 0m239 0l240 0 0 239 -240 0"/>
   <path class="fil1" d="M5772 3505l0 -239 239 0 0 239m0 239l0 238 -239 0 0 -238"/>
   <path class="fil1" d="M5772 3744l-238 0 0 -239 238 0m239 0l240 0 0 239 -240 0"/>
   <path class="fil2" d="M3200 4812c-671,0 -1215,-544 -1215,-1214 0,-670 544,-1214 1215,-1214 450,0 844,246 1053,610l1068 -619c-420,-732 -1209,-1225 -2114,-1225 -1346,0 -2437,1092 -2437,2440 0,1348 1091,2440 2437,2440 900,0 1686,-488 2108,-1215l-1059 -619c-208,368 -603,616 -1056,616z"/>
   <path class="fil3" d="M3200 4812c-671,0 -1215,-544 -1215,-1214 0,-670 544,-1214 1215,-1214 450,0 844,246 1053,610l810 -469 258 -150c-420,-732 -1209,-1225 -2114,-1225 -1345,0 -2437,1092 -2437,2440 0,1348 1092,2440 2437,2440 900,0 1686,-488 2108,-1215l-1059 -619c-4,8 -8,15 -13,23 -211,355 -600,593 -1043,593z"/>
  </g>
 </g>
</svg>
