<?xml version="1.0" encoding="UTF-8"?>
<!DOCTYPE svg PUBLIC "-//W3C//DTD SVG 1.1//EN" "http://www.w3.org/Graphics/SVG/1.1/DTD/svg11.dtd">
<!-- Creator: CorelDRAW X8 -->
<svg xmlns="http://www.w3.org/2000/svg" xml:space="preserve" width="62.341mm" height="70.4971mm" version="1.1" style="shape-rendering:geometricPrecision; text-rendering:geometricPrecision; image-rendering:optimizeQuality; fill-rule:evenodd; clip-rule:evenodd"
viewBox="0 0 6234 7050"
 xmlns:xlink="http://www.w3.org/1999/xlink">
 <defs>
  <style type="text/css">
   <![CDATA[
    .fil1 {fill:none}
    .fil2 {fill:#181A1B}
    .fil0 {fill:#A49C90}
   ]]>
  </style>
 </defs>
 <g id="Camada_x0020_1">
  <metadata id="CorelCorpID_0Corel-Layer"/>
  <g id="_1392028775920">
   <path class="fil0" d="M3363 68l1313 758 1303 752c162,94 255,257 255,447l0 1500 0 1499c0,190 -93,354 -255,447l-1303 752 -1313 759c-157,90 -334,90 -491,0l-1314 -759 -1303 -752c-162,-93 -255,-257 -255,-447l0 -1499 0 -1500c0,-190 93,-353 255,-447l1303 -752 1314 -758c157,-91 334,-91 491,0z"/>
   <path class="fil1" d="M4022 4041c-179,316 -518,530 -908,530 -576,0 -1044,-467 -1044,-1043 0,-576 468,-1043 1044,-1043 388,0 725,211 905,524"/>
   <path class="fil1" d="M4933 4573c-363,624 -1038,1043 -1813,1043 -1156,0 -2094,-938 -2094,-2095 0,-1158 938,-2096 2094,-2096 778,0 1457,424 1817,1052"/>
   <line class="fil1" x1="4022" y1="4041" x2="4936" y2= "4575" />
   <line class="fil1" x1="4018" y1="3010" x2="4941" y2= "2475" />
   <path class="fil1" d="M4743 3408l0 -232 232 0 0 232m0 233l0 232 -232 0 0 -232"/>
   <path class="fil1" d="M4743 3641l-232 0 0 -233 232 0m232 0l234 0 0 233 -234 0"/>
   <path class="fil1" d="M5614 3409l0 -232 233 0 0 232m0 233l0 231 -233 0 0 -231"/>
   <path class="fil1" d="M5614 3642l-231 0 0 -233 231 0m233 0l233 0 0 233 -233 0"/>
   <path class="fil2" d="M3114 4571c-576,0 -1044,-467 -1044,-1043 0,-576 468,-1043 1044,-1043 388,0 725,211 905,524l918 -532c-360,-628 -1039,-1052 -1817,-1052 -1156,0 -2094,938 -2094,2096 0,1158 938,2095 2094,2095 775,0 1450,-419 1813,-1043l-911 -532c-179,317 -518,530 -908,530l0 0z"/>
   <polygon class="fil2" points="4511,3641 4743,3641 4743,3873 4975,3873 4975,3641 5209,3641 5209,3408 4975,3408 4975,3176 4743,3176 4743,3408 4511,3408 "/>
   <polygon class="fil2" points="5383,3409 5383,3642 5614,3642 5614,3873 5847,3873 5847,3642 6080,3642 6080,3409 5847,3409 5847,3177 5614,3177 5614,3409 "/>
  </g>
 </g>
</svg>
